<svg xmlns="http://www.w3.org/2000/svg" width="43.717" height="39" viewBox="0 0 43.717 39">
  <path id="carrito-de-compras" d="M12.637,57.638a1.439,1.439,0,0,1,0-2.877c5.308.018,19.309,0,24.786.009a3.184,3.184,0,0,0,3.117-2.479l3.11-13.467a2.588,2.588,0,0,0-2.511-3.171c-2.2,0-20.906-.085-30.486-.123L9.134,29.9a3.1,3.1,0,0,0-2.988-2.287H1.281a1.281,1.281,0,1,0,0,2.563H6.146a.534.534,0,0,1,.514.392L12.492,52.2A4,4,0,0,0,8.636,56.27a4.021,4.021,0,0,0,4,3.932h1.869a4.485,4.485,0,1,0,8.1,0H30.7a4.486,4.486,0,1,0,8.07-.068,1.281,1.281,0,0,0-.409-2.5Zm7.842,4.485A1.922,1.922,0,1,1,18.556,60.2h0A1.924,1.924,0,0,1,20.48,62.124Zm14.273,1.922a1.922,1.922,0,0,1-.031-3.844h.062a1.922,1.922,0,0,1-.031,3.844Zm6.4-25.82a.02.02,0,0,1,0,.021l-1.31,5.675H35.4l.756-5.726,4.968.02A.02.02,0,0,1,41.148,38.225ZM27.937,52.207V46.484h4.545l-.755,5.722Zm-6.355,0-.761-5.722h4.553v5.722Zm-5.9,0h0a.694.694,0,0,1-.669-.511l-1.4-5.212h4.63L19,52.207Zm4.8-8.285-.771-5.792,5.665.023v5.769Zm7.457,0V38.163l5.64.023-.757,5.736Zm-10.815-5.8.772,5.8h-4.98L11.344,38.1Zm20.3,14.088H34.311l.755-5.722H39.25l-1.208,5.23A.633.633,0,0,1,37.423,52.207Z" transform="translate(0 -27.609)" fill="#fff"/>
</svg>
