<svg xmlns="http://www.w3.org/2000/svg" width="29.443" height="33.5" viewBox="0 0 29.443 33.5">
  <g id="garbage" transform="translate(-31)">
    <g id="Grupo_170" data-name="Grupo 170" transform="translate(31)">
      <g id="Grupo_169" data-name="Grupo 169">
        <path id="Trazado_12" data-name="Trazado 12" d="M57.5,3.926H51.61V2.944A2.948,2.948,0,0,0,48.666,0H42.777a2.948,2.948,0,0,0-2.944,2.944v.981H33.944A2.948,2.948,0,0,0,31,6.87V8.833a.981.981,0,0,0,.981.981H33.04l1.726,21v.008A2.93,2.93,0,0,0,37.7,33.5H53.744a2.93,2.93,0,0,0,2.932-2.678v-.008l1.727-21h1.059a.981.981,0,0,0,.981-.981V6.87A2.948,2.948,0,0,0,57.5,3.926ZM41.8,2.944a.983.983,0,0,1,.981-.981h5.889a.983.983,0,0,1,.981.981v.981H41.8Zm12.925,27.7a.977.977,0,0,1-.977.889H37.7a.977.977,0,0,1-.977-.889L35.01,9.814H56.434Zm3.76-22.8H32.963V6.87a.983.983,0,0,1,.981-.981H57.5a.983.983,0,0,1,.981.981Z" transform="translate(-31)"/>
      </g>
    </g>
    <g id="Grupo_172" data-name="Grupo 172" transform="translate(44.74 11.777)">
      <g id="Grupo_171" data-name="Grupo 171">
        <path id="Trazado_13" data-name="Trazado 13" d="M241.981,180a.981.981,0,0,0-.981.981v13.871a.981.981,0,0,0,1.963,0V180.981A.981.981,0,0,0,241.981,180Z" transform="translate(-241 -180)"/>
      </g>
    </g>
    <g id="Grupo_174" data-name="Grupo 174" transform="translate(50.629 11.777)">
      <g id="Grupo_173" data-name="Grupo 173">
        <path id="Trazado_14" data-name="Trazado 14" d="M331.981,180a.981.981,0,0,0-.981.981v13.871a.981.981,0,1,0,1.963,0V180.981A.981.981,0,0,0,331.981,180Z" transform="translate(-331 -180)"/>
      </g>
    </g>
    <g id="Grupo_176" data-name="Grupo 176" transform="translate(38.852 11.777)">
      <g id="Grupo_175" data-name="Grupo 175">
        <path id="Trazado_15" data-name="Trazado 15" d="M151.981,180a.981.981,0,0,0-.981.981v13.871a.981.981,0,0,0,1.963,0V180.981A.981.981,0,0,0,151.981,180Z" transform="translate(-151 -180)"/>
      </g>
    </g>
  </g>
</svg>
